<svg xmlns="http://www.w3.org/2000/svg" viewBox="0 0 512 512" fill="#ffffff"><path d="M258.312 414.164L78.9267 414.198C73.007 414.325 73.3751 418.869 73.4074 423.749L73.4736 435.204C73.464 437.995 73.5472 441.033 72.8107 443.739C68.3529 460.121 48.0976 474.727 30.936 469.565C19.6966 466.185 11.3263 454.943 10.1913 443.41C9.75862 439.014 9.94094 434.499 9.93916 430.082L9.97148 359.986C10.013 358.809 10.0773 357.312 10.506 356.201L10.8357 355.405C11.5848 353.597 12.7259 352.273 14.5685 351.53L14.9722 351.375C16.876 350.627 18.7762 350.667 20.7904 350.626L19.9213 346.942C14.7604 324.826 21.1334 304.425 35.3408 286.875C37.9158 283.694 42.096 281.315 42.0049 277.747L41.912 119.452C41.9108 114.318 41.4922 108.776 42.1188 103.701C44.0853 87.7723 63.8896 77.3285 77.7981 86.2279C82.6851 89.3548 87.6176 94.6267 88.8793 100.385C89.4252 100.489 96.3619 95.07 97.1894 94.4601C143.86 60.062 193.052 39.3014 252.407 38.9245C254.572 38.7925 256.829 38.9191 259.002 38.9211L277.985 39.7755C324.876 43.7798 370.923 61.7941 408.845 89.6633L418.054 96.7632C419.618 97.9682 421.572 99.6437 423.357 100.461L425.008 96.75C433.616 78.0797 460.046 78.6421 468.314 98.2645C470.476 103.397 470.254 108.536 470.263 113.998L470.366 280.086C470.617 280.554 470.805 280.846 471.233 281.175C481.632 289.17 490.946 308.573 493.068 321.125C494.728 330.941 493.794 341.295 491.63 350.931C500.03 352.18 501.952 353.224 502.048 361.295L502.113 426.856C502.121 435.632 503.123 445.251 499.149 453.387C486.33 479.632 452.322 473.078 441.331 449.028C439.169 444.296 438.607 439.302 438.601 434.153L438.614 424.367C438.62 419.446 438.62 414.685 432.581 414.24C426.315 413.779 419.753 414.164 413.462 414.168L258.312 414.164ZM250.936 54.3804C209.327 55.0091 166.698 68.0212 131.469 89.875C119.791 97.1198 109.101 105.551 97.871 113.426C94.8721 115.529 90.9469 116.843 89.1241 118.149L89.6407 155.614C90.6001 154.918 92.4036 154.659 93.5668 154.175L132.565 138.104L159.23 129.736C179.465 123.998 199.898 119.668 220.808 117.269L238.058 115.512C246.28 115.015 254.628 115.259 262.863 115.271C300.486 115.543 345.279 125.426 380.089 138.406L420.56 155.632C421.046 155.888 422.379 156.83 422.843 156.856L422.744 118.478C420.259 116.888 417.702 115.646 415.234 113.918L385.747 93.1366C343.501 65.7314 300.646 54.3406 250.936 54.3804ZM64.6857 98.7858C54.4137 101.107 57.7159 116 57.7244 124.37L57.7821 264.824C58.5189 263.313 60.77 261.861 61.96 260.573L71.1496 250.255C73.2882 247.927 73.5679 248.427 73.5281 245.291L73.5175 117.005C73.521 109.367 75.8546 98.7503 64.6857 98.7858ZM445.14 99.0666C436.893 100.805 438.475 108.141 438.545 114.61L438.627 243.553C438.671 248.223 438.487 248.207 441.498 251.705L451.263 262.833L453.609 265.18C454.012 265.515 454.194 265.764 454.444 266.216L454.487 112.706C454.473 105.108 454.027 99.576 445.14 99.0666ZM246.127 130.787C196.585 132.34 144.127 148.071 99.644 168.853C96.6369 170.258 91.0122 171.681 89.3361 172.561L89.5651 234.527C92.5715 230.283 111.537 223.141 116.962 222.398L119.226 222.187C119.323 205.618 128.891 191.08 145.25 186.739C151.316 185.129 157.22 185.312 163.433 185.309L216.382 185.363C235.909 185.663 248.632 196.027 256.327 213.065L259.588 205.911C270.806 186.521 287.072 185.325 306.405 185.311L349.358 185.303C353.469 185.305 357.803 185.083 361.875 185.707C380.366 188.543 392.992 203.87 393.705 222.19C401.274 223.021 417.734 229.346 423.032 235.077L422.762 173.69C421.417 172.814 419.803 172.297 418.358 171.566L396.555 161.715C359.196 145.998 320.094 134.91 279.576 131.679L246.127 130.787ZM157.677 201.084C145.741 201.427 137.646 205.904 134.7 218.611L214.382 215.491C222.821 215.478 231.41 215.862 239.786 214.766C229.763 200.052 222.905 201.07 206.443 201.061L157.677 201.084ZM299.94 201.055C288.667 201.099 280.63 202.491 273.86 212.507C273.264 213.389 273.048 214.569 272.388 215.338L352.562 217.088L353.054 217.148C361.201 216.772 369.511 218.324 377.621 218.837C373.148 197.928 354.347 201.038 338.584 201.039L299.94 201.055ZM225.987 230.688L206.125 230.742C203.795 230.798 201.491 231.324 199.138 231.378L181.219 231.534L145.847 233.861C122.126 235.911 103.761 238.587 87.1881 257.56L98.745 255.188C110.882 253.223 123.212 252.378 135.454 251.348L177.759 248.728C179.758 248.664 181.735 248.305 183.741 248.245L286.688 248.143L323.75 248.196C325.881 248.251 328.005 248.639 330.155 248.707L387.481 252.103L425.49 257.712C422.935 254.718 419.396 252.069 416.299 249.65C399.756 236.732 386.066 235.245 365.401 233.604L225.987 230.688ZM225.806 263.665L199.75 263.711C197.489 263.775 195.25 264.321 192.947 264.372L168.488 264.509C166.191 264.593 163.914 264.995 161.622 265.159L141.286 266.592C119.325 268.35 96.7741 269.702 75.8517 277.247C53.4737 285.317 33.5881 306.91 33.7844 331.692C33.8208 336.288 35.1566 346.501 36.9868 350.995L287.125 350.996L471.493 350.988C476.524 350.991 475.429 350.798 476.687 345.681C483.655 317.343 467.184 292.043 441.842 279.627C427.029 272.37 409.834 270.585 393.628 268.745L361.213 265.656L318.271 264.401C315.81 264.341 313.374 263.774 310.871 263.722L225.806 263.665ZM25.7776 366.524L25.731 414.316C25.7306 422.431 25.3284 430.779 25.8032 438.872C27.0944 460.883 49.6512 458.096 57.1539 441.226C58.0234 439.271 57.7369 436.732 57.7312 434.635L57.6907 423.354C57.6498 409.638 63.4532 399.101 78.0121 398.624L433.654 398.638C441.84 398.907 449.98 404.337 452.865 412.076L453.393 413.802C454.177 416.597 454.412 418.648 454.451 421.613L454.488 429.875C454.475 432.77 454.198 436.064 454.696 438.898C457.491 454.796 482.243 462.349 486.093 442.511C486.592 439.944 486.332 436.929 486.33 434.31L486.286 366.609L25.7776 366.524Z" /></svg>