<svg xmlns="http://www.w3.org/2000/svg" viewBox="0 0 313 339" fill="#132358" stroke="#132358" stroke-width="0"><path d="M56 50c0 1 1 2 2 2h5c1 0 2-1 2-2V19c0-1-1-2-2-2h-5c-1 0-2 1-2 2v31zM17 81h279V71c0-14-9-25-22-28v7c0 10-8 19-19 19h-5c-10 0-19-9-19-19v-7h-21v7c0 10-8 19-19 19h-5c-10 0-19-9-19-19v-7h-21v7c0 10-9 19-19 19h-5c-10 0-19-9-19-19v-7H82v7c0 10-9 19-19 19h-5c-11 0-19-9-19-19v-7c-13 3-22 14-22 28v10zm279 17H17v197c0 15 12 27 28 27h224c15 0 27-12 27-27V98zM250 0h5c11 0 19 8 19 19v7c22 3 39 22 39 45v224c0 24-20 44-44 44H45c-25 0-45-20-45-44V71c0-23 17-42 39-45v-7C39 8 47 0 58 0h5c10 0 19 8 19 19v7h21v-7c0-11 9-19 19-19h5c10 0 19 8 19 19v7h21v-7c0-11 9-19 19-19h5c11 0 19 8 19 19v7h21v-7c0-11 9-19 19-19zm5 17h-5c-1 0-2 1-2 2v31c0 1 1 2 2 2h5c2 0 2-1 2-2V19c0-1 0-2-2-2zm-64 0h-5c-1 0-2 1-2 2v31c0 1 1 2 2 2h5c1 0 2-1 2-2V19c0-1-1-2-2-2zm-64 0h-5c-1 0-2 1-2 2v31c0 1 1 2 2 2h5c1 0 2-1 2-2V19c0-1-1-2-2-2z"/><path d="M135 139h43c4 0 7 2 7 6v44c0 3-3 6-7 6h-43c-4 0-7-3-7-6v-44c0-4 3-6 7-6zm83 0h44c3 0 6 2 6 6v44c0 3-3 6-6 6h-44c-3 0-6-3-6-6v-44c0-4 3-6 6-6zM52 227h43c4 0 7 3 7 6v44c0 3-3 6-7 6H52c-4 0-7-3-7-6v-44c0-3 3-6 7-6zm83 0h43c4 0 7 3 7 6v44c0 3-3 6-7 6h-43c-4 0-7-3-7-6v-44c0-3 3-6 7-6zm83 0h44c3 0 6 3 6 6v44c0 3-3 6-6 6h-44c-3 0-6-3-6-6v-44c0-3 3-6 6-6z" fill="#132358"/></svg>