<svg xmlns="http://www.w3.org/2000/svg" viewBox="0 0 100 80" fill="none" stroke="#ffffff" stroke-width="2"><rect x="5" y="20" width="25" height="60" /><rect x="30" y="0" width="40" height="80" /><rect x="70" y="20" width="25" height="60" /><rect x="10" y="27" width="6" height="6" stroke-width="1"/><rect x="19" y="27" width="6" height="6" stroke-width="1"/><rect x="10" y="37" width="6" height="6" stroke-width="1"/><rect x="19" y="37" width="6" height="6" stroke-width="1"/><rect x="10" y="47" width="6" height="6" stroke-width="1"/><rect x="19" y="47" width="6" height="6" stroke-width="1"/><rect x="10" y="57" width="6" height="6" stroke-width="1"/><rect x="19" y="57" width="6" height="6" stroke-width="1"/><rect x="10" y="67" width="6" height="6" stroke-width="1"/><rect x="19" y="67" width="6" height="6" stroke-width="1"/><rect x="36" y="7" width="6" height="6" stroke-width="1"/><rect x="47" y="7" width="6" height="6" stroke-width="1"/><rect x="58" y="7" width="6" height="6" stroke-width="1"/><rect x="36" y="17" width="6" height="6" stroke-width="1"/><rect x="47" y="17" width="6" height="6" stroke-width="1"/><rect x="58" y="17" width="6" height="6" stroke-width="1"/><rect x="36" y="27" width="6" height="6" stroke-width="1"/><rect x="47" y="27" width="6" height="6" stroke-width="1"/><rect x="58" y="27" width="6" height="6" stroke-width="1"/><rect x="36" y="37" width="6" height="6" stroke-width="1"/><rect x="47" y="37" width="6" height="6" stroke-width="1"/><rect x="58" y="37" width="6" height="6" stroke-width="1"/><rect x="42" y="50" width="16" height="30" stroke-width="1"/><rect x="75" y="27" width="6" height="6" stroke-width="1"/><rect x="84" y="27" width="6" height="6" stroke-width="1"/><rect x="75" y="37" width="6" height="6" stroke-width="1"/><rect x="84" y="37" width="6" height="6" stroke-width="1"/><rect x="75" y="47" width="6" height="6" stroke-width="1"/><rect x="84" y="47" width="6" height="6" stroke-width="1"/><rect x="75" y="57" width="6" height="6" stroke-width="1"/><rect x="84" y="57" width="6" height="6" stroke-width="1"/><rect x="75" y="67" width="6" height="6" stroke-width="1"/><rect x="84" y="67" width="6" height="6" stroke-width="1"/></svg>