<svg viewBox="0 0 34 34" fill="none" xmlns="http://www.w3.org/2000/svg"><path d="M9.56251 11.6876V5.31265C9.56251 5.03086 9.67445 4.76061 9.87371 4.56135C10.073 4.36209 10.3432 4.25015 10.625 4.25015C10.9068 4.25015 11.1771 4.36209 11.3763 4.56135C11.5756 4.76061 11.6875 5.03086 11.6875 5.31265V11.6876C11.6875 11.9694 11.5756 12.2397 11.3763 12.4389C11.1771 12.6382 10.9068 12.7501 10.625 12.7501C10.3432 12.7501 10.073 12.6382 9.87371 12.4389C9.67445 12.2397 9.56251 11.9694 9.56251 11.6876ZM28.6875 5.31265V29.7501C28.6875 30.0319 28.5756 30.3022 28.3763 30.5014C28.1771 30.7007 27.9068 30.8126 27.625 30.8126C27.3432 30.8126 27.073 30.7007 26.8737 30.5014C26.6745 30.3022 26.5625 30.0319 26.5625 29.7501V23.3751H20.1875C19.9057 23.3751 19.6355 23.2632 19.4362 23.0639C19.237 22.8647 19.125 22.5944 19.125 22.3126C19.1743 19.7675 19.4958 17.235 20.0839 14.7583C21.3828 9.3807 23.8452 5.77616 27.2067 4.33648C27.3682 4.26727 27.5444 4.23922 27.7195 4.25486C27.8946 4.27049 28.063 4.32931 28.2098 4.42604C28.3565 4.52278 28.477 4.65441 28.5604 4.80915C28.6437 4.96388 28.6874 5.13688 28.6875 5.31265ZM26.5625 7.15874C22.2899 10.4219 21.4532 18.3708 21.2899 21.2501H26.5625V7.15874ZM15.9229 5.13866C15.9021 4.99915 15.8537 4.86518 15.7806 4.74456C15.7074 4.62394 15.611 4.51909 15.497 4.43612C15.3829 4.35316 15.2534 4.29374 15.1161 4.26133C14.9789 4.22892 14.8365 4.22418 14.6974 4.24737C14.5582 4.27056 14.4251 4.32122 14.3057 4.3964C14.1864 4.47158 14.0832 4.56977 14.0022 4.68525C13.9212 4.80073 13.864 4.93118 13.8339 5.069C13.8039 5.20682 13.8016 5.34924 13.8271 5.48796L14.875 11.7713C14.875 12.8985 14.4272 13.9795 13.6302 14.7765C12.8332 15.5736 11.7522 16.0213 10.625 16.0213C9.49784 16.0213 8.41684 15.5736 7.61981 14.7765C6.82278 13.9795 6.37501 12.8985 6.37501 11.7713L7.42157 5.48796C7.44714 5.34924 7.44482 5.20682 7.41476 5.069C7.3847 4.93118 7.32751 4.80073 7.2465 4.68525C7.1655 4.56977 7.06231 4.47158 6.94296 4.3964C6.8236 4.32122 6.69048 4.27056 6.55134 4.24737C6.4122 4.22418 6.26984 4.22892 6.13256 4.26133C5.99527 4.29374 5.86582 4.35316 5.75174 4.43612C5.63766 4.51909 5.54124 4.62394 5.46811 4.74456C5.39498 4.86518 5.3466 4.99915 5.32579 5.13866L4.26329 11.5137C4.2542 11.5712 4.24976 11.6294 4.25001 11.6876C4.25213 13.1935 4.78646 14.6501 5.75858 15.8001C6.73071 16.9502 8.07804 17.7195 9.56251 17.9723V29.7501C9.56251 30.0319 9.67445 30.3022 9.87371 30.5014C10.073 30.7007 10.3432 30.8126 10.625 30.8126C10.9068 30.8126 11.1771 30.7007 11.3763 30.5014C11.5756 30.3022 11.6875 30.0319 11.6875 29.7501V17.9723C13.172 17.7195 14.5193 16.9502 15.4914 15.8001C16.4636 14.6501 16.9979 13.1935 17 11.6876C16.9998 11.6294 16.9949 11.5712 16.9854 11.5137L15.9229 5.13866Z" fill="#00be15"/></svg>