<svg xmlns="http://www.w3.org/2000/svg" viewBox="0 0 600 20" fill="#ad9861"><path d="M10,10 L240,10 C245,10 250,8 255,10 C250,12 245,10 240,10 M590,10 L360,10 C355,10 350,8 345,10 C350,12 355,10 360,10 M255,10 L345,10" stroke="#ad9861" stroke-width="0.5" fill="none"/><path d="M260,10 c3,-6 10,-6 13,0 c-3,6 -10,6 -13,0" /><path d="M340,10 c-3,-6 -10,-6 -13,0 c3,6 10,6 13,0" /><rect x="252" y="9" width="2" height="2" transform="rotate(45 253 10)" /><rect x="346" y="9" width="2" height="2" transform="rotate(45 347 10)" /></svg>