<svg xmlns="http://www.w3.org/2000/svg" viewBox="0 0 64 64" fill="#ffffff" stroke="#ffffff" stroke-width="0"><path d="M19 25h-8c-1.104 0-2 .896-2 2v8c0 1.104.896 2 2 2h8c1.104 0 2-.896 2-2v-8C21 25.896 20.104 25 19 25zM17 33h-4v-4h4V33zM36 35v-8c0-1.104-.896-2-2-2h-8c-1.104 0-2 .896-2 2v8c0 1.104.896 2 2 2h8C35.104 37 36 36.104 36 35zM32 33h-4v-4h4V33zM19 41h-8c-1.104 0-2 .896-2 2v8c0 1.104.896 2 2 2h8c1.104 0 2-.896 2-2v-8C21 41.896 20.104 41 19 41zM17 49h-4v-4h4V49z"/><path d="M59,37.837V12c0-3.86-3.14-7-7-7h-6V3c0-1.104-0.896-2-2-2s-2,0.896-2,2v2H32V3c0-1.104-0.896-2-2-2s-2,0.896-2,2v2H18V3c0-1.104-0.896-2-2-2s-2,0.896-2,2v7c0,1.104,0.896,2,2,2s2-0.896,2-2V9h10v1c0,1.104,0.896,2,2,2s2-0.896,2-2V9h10v1c0,1.104,0.896,2,2,2s2-0.896,2-2V9h6c1.654,0,3,1.346,3,3v5H5v-5c0-1.654,1.346-3,3-3h1c1.104,0,2-0.896,2-2s-0.896-2-2-2H8c-3.86,0-7,3.14-7,7v42c0,3.86,3.14,7,7,7h32.549c2.198,1.265,4.738,2,7.451,2c8.271,0,15-6.729,15-15C63,44.077,61.474,40.512,59,37.837z M5,54V21h50v13.744C52.908,33.635,50.528,33,48,33c-8.271,0-15,6.729-15,15c0,3.379,1.136,6.49,3.029,9H8C6.346,57,5,55.654,5,54z M48,59c-6.065,0-11-4.935-11-11s4.935-11,11-11s11,4.935,11,11S54.065,59,48,59z"/><path d="M51.586,44.586L47,49.171l-2.586-2.585c-0.78-0.781-2.048-0.781-2.828,0c-0.781,0.781-0.781,2.047,0,2.828l4,4C45.976,53.805,46.488,54,47,54s1.024-0.195,1.414-0.586l6-6c0.781-0.781,0.781-2.047,0-2.828C53.634,43.805,52.366,43.805,51.586,44.586z" fill="#ffffff"/></svg>