<svg xmlns="http://www.w3.org/2000/svg" id="schedule" viewBox="0 0 1000 1000" fill="#fff"><path d="M787.9,907.55c-83.31,0-151.09-67.78-151.09-151.1s67.78-151.1,151.09-151.1S939,673.13,939,756.45,871.22,907.55,787.9,907.55Zm0-274.2A123.1,123.1,0,1,0,911,756.45,123.23,123.23,0,0,0,787.9,633.35Z"/><path d="M787.9 666.26a14 14 0 0 1-14-14V619.35a14 14 0 0 1 28 0v32.91A14 14 0 0 1 787.9 666.26ZM735.82 680.22a14 14 0 0 1-12.14-7l-16.45-28.5a14 14 0 0 1 24.25-14l16.45 28.5a14 14 0 0 1-12.11 21ZM697.66 718.36a14 14 0 0 1-7-1.88L662.17 700a14 14 0 0 1 14-24.25l28.5 16.45a14 14 0 0 1-7 26.13ZM683.71 770.45h-32.9a14 14 0 0 1 0-28h32.9a14 14 0 0 1 0 28ZM669.19 839a14 14 0 0 1-7-26.12l28.5-16.46a14 14 0 0 1 14 24.25l-28.5 16.45A13.84 13.84 0 0 1 669.19 839ZM719.34 889.18a14 14 0 0 1-12.11-21l16.45-28.49a14 14 0 1 1 24.25 14l-16.45 28.49A14 14 0 0 1 719.34 889.18ZM787.9 907.55a14 14 0 0 1-14-14V860.64a14 14 0 0 1 28 0v32.91A14 14 0 0 1 787.9 907.55ZM856.46 889.18a14 14 0 0 1-12.13-7l-16.45-28.49a14 14 0 1 1 24.24-14l16.46 28.49a14 14 0 0 1-5.13 19.12A13.85 13.85 0 0 1 856.46 889.18ZM906.62 839a13.88 13.88 0 0 1-7-1.88l-28.49-16.45a14 14 0 1 1 14-24.25l28.49 16.46a14 14 0 0 1-7 26.12ZM925 770.45H892.1a14 14 0 0 1 0-28H925a14 14 0 0 1 0 28ZM878.15 718.36a14 14 0 0 1-7-26.13l28.49-16.45a14 14 0 1 1 14 24.25l-28.49 16.45A14 14 0 0 1 878.15 718.36ZM840 680.22a14 14 0 0 1-12.11-21l16.45-28.5a14 14 0 0 1 24.25 14l-16.46 28.5A14 14 0 0 1 840 680.22ZM816.49 770.45H787.9a14 14 0 0 1-14-14V707.53a14 14 0 0 1 28 0v34.92h14.59a14 14 0 0 1 0 28Z"/><path d="M801.61,634a14,14,0,0,1-14-14h0a14,14,0,1,1,14,14Z"/><path d="M774.19,634a14,14,0,0,1-14-14h0a14,14,0,1,1,14,14Z"/><path d="M683.71 770.45H75a14 14 0 0 1-14-14V295.17a14 14 0 0 1 14-14H787.89a14 14 0 0 1 14 14V619.35a14 14 0 0 1-28 0V309.16H89V742.45H683.71a14 14 0 0 1 0 28ZM477.57 183.36H385.32a14 14 0 0 1 0-28h92.25a14 14 0 1 1 0 28Z"/><path d="M787.9,309.16H75a14,14,0,0,1-14-14V169.36a14,14,0,0,1,14-14h92.26a14,14,0,0,1,0,28H89v97.8H773.9v-97.8H695.64a14,14,0,0,1,0-28H787.9a14,14,0,0,1,14,14v125.8A14,14,0,0,1,787.9,309.16Z"/><path d="M322.42 183.36H230.16a14 14 0 1 1 0-28h92.26a14 14 0 0 1 0 28ZM632.73 183.36H540.48a14 14 0 0 1 0-28h92.25a14 14 0 0 1 0 28ZM230.16 440.21H167.25a14 14 0 0 1-14-14v-62.9a14 14 0 0 1 14-14h62.91a14 14 0 0 1 14 14v62.9A14 14 0 0 1 230.16 440.21Zm-48.91-28h34.91v-34.9H181.25ZM385.32 440.21h-62.9a14 14 0 0 1-14-14v-62.9a14 14 0 0 1 14-14h62.9a14 14 0 0 1 14 14v62.9A14 14 0 0 1 385.32 440.21Zm-48.9-28h34.9v-34.9h-34.9ZM540.48 440.21h-62.9a14 14 0 0 1-14-14v-62.9a14 14 0 0 1 14-14h62.9a14 14 0 0 1 14 14v62.9A14 14 0 0 1 540.48 440.21Zm-48.9-28h34.9v-34.9h-34.9ZM695.64 440.21h-62.9a14 14 0 0 1-14-14v-62.9a14 14 0 0 1 14-14h62.9a14 14 0 0 1 14 14v62.9A14 14 0 0 1 695.64 440.21Zm-48.9-28h34.9v-34.9h-34.9Z"/><path d="M230.16 440.21H167.25a14 14 0 0 1-14-14v-62.9a14 14 0 0 1 14-14h62.91a14 14 0 0 1 14 14v62.9A14 14 0 0 1 230.16 440.21Zm-48.91-28h34.91v-34.9H181.25ZM385.32 440.21h-62.9a14 14 0 0 1-14-14v-62.9a14 14 0 0 1 14-14h62.9a14 14 0 0 1 14 14v62.9A14 14 0 0 1 385.32 440.21Zm-48.9-28h34.9v-34.9h-34.9ZM540.48 440.21h-62.9a14 14 0 0 1-14-14v-62.9a14 14 0 0 1 14-14h62.9a14 14 0 0 1 14 14v62.9A14 14 0 0 1 540.48 440.21Zm-48.9-28h34.9v-34.9h-34.9ZM695.64 440.21h-62.9a14 14 0 0 1-14-14v-62.9a14 14 0 0 1 14-14h62.9a14 14 0 0 1 14 14v62.9A14 14 0 0 1 695.64 440.21Zm-48.9-28h34.9v-34.9h-34.9Z"/><path d="M230.16 440.21H167.25a14 14 0 0 1-14-14v-62.9a14 14 0 0 1 14-14h62.91a14 14 0 0 1 14 14v62.9A14 14 0 0 1 230.16 440.21Zm-48.91-28h34.91v-34.9H181.25ZM385.32 440.21h-62.9a14 14 0 0 1-14-14v-62.9a14 14 0 0 1 14-14h62.9a14 14 0 0 1 14 14v62.9A14 14 0 0 1 385.32 440.21Zm-48.9-28h34.9v-34.9h-34.9ZM540.48 440.21h-62.9a14 14 0 0 1-14-14v-62.9a14 14 0 0 1 14-14h62.9a14 14 0 0 1 14 14v62.9A14 14 0 0 1 540.48 440.21Zm-48.9-28h34.9v-34.9h-34.9ZM695.64 440.21h-62.9a14 14 0 0 1-14-14v-62.9a14 14 0 0 1 14-14h62.9a14 14 0 0 1 14 14v62.9A14 14 0 0 1 695.64 440.21Zm-48.9-28h34.9v-34.9h-34.9ZM221.28 246.26H176.13a22.91 22.91 0 0 1-22.88-22.88v-108a22.91 22.91 0 0 1 22.88-22.88h45.15a22.9 22.9 0 0 1 22.88 22.88V223.38A22.9 22.9 0 0 1 221.28 246.26Zm-40-28h34.91V120.45H181.25ZM376.44 246.26H331.29a22.9 22.9 0 0 1-22.87-22.88v-108a22.9 22.9 0 0 1 22.87-22.88h45.15a22.9 22.9 0 0 1 22.88 22.88V223.38A22.9 22.9 0 0 1 376.44 246.26Zm-40-28h34.9V120.45h-34.9ZM531.6 246.26H486.45a22.9 22.9 0 0 1-22.87-22.88v-108a22.9 22.9 0 0 1 22.87-22.88H531.6a22.9 22.9 0 0 1 22.88 22.88V223.38A22.9 22.9 0 0 1 531.6 246.26Zm-40-28h34.9V120.45h-34.9ZM686.76 246.26H641.61a22.9 22.9 0 0 1-22.87-22.88v-108a22.9 22.9 0 0 1 22.87-22.88h45.15a22.9 22.9 0 0 1 22.88 22.88V223.38A22.9 22.9 0 0 1 686.76 246.26Zm-40-28h34.9V120.45h-34.9ZM230.16 571.26H167.25a14 14 0 0 1-14-14V494.35a14 14 0 0 1 14-14h62.91a14 14 0 0 1 14 14v62.91A14 14 0 0 1 230.16 571.26Zm-48.91-28h34.91V508.35H181.25ZM385.32 571.26h-62.9a14 14 0 0 1-14-14V494.35a14 14 0 0 1 14-14h62.9a14 14 0 0 1 14 14v62.91A14 14 0 0 1 385.32 571.26Zm-48.9-28h34.9V508.35h-34.9ZM540.48 571.26h-62.9a14 14 0 0 1-14-14V494.35a14 14 0 0 1 14-14h62.9a14 14 0 0 1 14 14v62.91A14 14 0 0 1 540.48 571.26Zm-48.9-28h34.9V508.35h-34.9ZM695.64 571.26h-62.9a14 14 0 0 1-14-14V494.35a14 14 0 0 1 14-14h62.9a14 14 0 0 1 14 14v62.91A14 14 0 0 1 695.64 571.26Zm-48.9-28h34.9V508.35h-34.9ZM230.16 702.31H167.25a14 14 0 0 1-14-14V625.4a14 14 0 0 1 14-14h62.91a14 14 0 0 1 14 14v62.91A14 14 0 0 1 230.16 702.31Zm-48.91-28h34.91V639.4H181.25ZM385.32 702.31h-62.9a14 14 0 0 1-14-14V625.4a14 14 0 0 1 14-14h62.9a14 14 0 0 1 14 14v62.91A14 14 0 0 1 385.32 702.31Zm-48.9-28h34.9V639.4h-34.9ZM540.48 702.31h-62.9a14 14 0 0 1-14-14V625.4a14 14 0 0 1 14-14h62.9a14 14 0 0 1 14 14v62.91A14 14 0 0 1 540.48 702.31Zm-48.9-28h34.9V639.4h-34.9Z" />,
</svg>