<svg xmlns="http://www.w3.org/2000/svg" viewBox="0 0 48 48"><path fill="#00be15" d="M23.993 0C10.762 0 0 10.765 0 24s1.693 10.116 4.57 14.067L1.58 46.984l9.224-2.948c3.794 2.511 8.322 3.964 13.203 3.964C37.238 48 48 37.234 48 24S37.238 0 24.007 0z"/><path fill="#FFFFFF" d="M17.293 12.191c-.465-1.115-.818-1.157-1.523-1.186-.24-.014-.508-.028-.804-.028-.917 0-1.876.268-2.455.86-.705.72-2.454 2.399-2.454 5.842 0 3.443 2.51 6.773 2.849 7.239.353.465 4.895 7.633 11.947 10.554 5.515 2.286 7.152 2.074 8.407 1.806 1.834-.395 4.133-1.75 4.712-3.386.578-1.637.578-3.034.408-3.33-.169-.296-.635-.465-1.34-.818-.705-.353-4.133-2.046-4.782-2.272-.635-.24-1.241-.155-1.72.522-.677.945-1.34 1.905-1.876 2.483-.423.452-1.115.508-1.693.268-.776-.324-2.948-1.087-5.628-3.471-2.074-1.848-3.484-4.148-3.893-4.839-.409-.705-.042-1.115.282-1.496.353-.437.691-.747 1.044-1.156.353-.409.55-.621.776-1.1.24-.466.07-.946-.1-1.299-.17-.353-1.58-3.796-2.158-5.193z"/></svg>