<svg viewBox="0 0 34 34" fill="none" xmlns="http://www.w3.org/2000/svg"><path d="M18.5943 27.0935C18.5943 27.4087 18.5008 27.7169 18.3257 27.979C18.1505 28.241 17.9016 28.4453 17.6104 28.566C17.3192 28.6866 16.9987 28.7181 16.6896 28.6566C16.3804 28.5951 16.0964 28.4434 15.8736 28.2205C15.6507 27.9976 15.4989 27.7136 15.4374 27.4044C15.3759 27.0953 15.4074 26.7748 15.5281 26.4836C15.6487 26.1924 15.853 25.9435 16.1151 25.7684C16.3772 25.5932 16.6853 25.4998 17.0005 25.4998C17.4232 25.4998 17.8286 25.6677 18.1275 25.9666C18.4263 26.2655 18.5943 26.6708 18.5943 27.0935ZM31.4877 11.5545C27.403 8.2041 22.2834 6.37305 17.0005 6.37305C11.7176 6.37305 6.59797 8.2041 2.51332 11.5545C2.40544 11.6431 2.31608 11.752 2.25032 11.8752C2.18456 11.9983 2.14371 12.1332 2.13008 12.2721C2.11645 12.4111 2.13032 12.5513 2.17089 12.6849C2.21147 12.8184 2.27796 12.9427 2.36656 13.0506C2.45516 13.1585 2.56414 13.2478 2.68728 13.3136C2.81042 13.3793 2.9453 13.4202 3.08423 13.4338C3.36481 13.4613 3.64483 13.3763 3.86269 13.1973C7.56711 10.1595 12.2098 8.49935 17.0005 8.49935C21.7912 8.49935 26.4339 10.1595 30.1383 13.1973C30.3562 13.3763 30.6362 13.4613 30.9168 13.4338C31.1974 13.4063 31.4555 13.2684 31.6344 13.0506C31.8134 12.8327 31.8985 12.5527 31.8709 12.2721C31.8434 11.9915 31.7056 11.7334 31.4877 11.5545ZM27.2271 16.3052C24.3176 14.0017 20.7154 12.7484 17.0045 12.7484C13.2936 12.7484 9.69139 14.0017 6.78191 16.3052C6.56105 16.4802 6.41879 16.7358 6.38641 17.0158C6.35403 17.2958 6.43419 17.5771 6.60925 17.798C6.78432 18.0188 7.03994 18.1611 7.3199 18.1935C7.59986 18.2259 7.88121 18.1457 8.10207 17.9706C10.6359 15.9649 13.7729 14.8737 17.0045 14.8737C20.2361 14.8737 23.373 15.9649 25.9069 17.9706C26.0163 18.0573 26.1416 18.1216 26.2758 18.1599C26.41 18.1981 26.5505 18.2096 26.6891 18.1935C26.8277 18.1775 26.9618 18.1343 27.0837 18.0664C27.2057 17.9986 27.313 17.9073 27.3997 17.798C27.4864 17.6886 27.5507 17.5633 27.589 17.4291C27.6272 17.2949 27.6386 17.1544 27.6226 17.0158C27.6066 16.8772 27.5634 16.7431 27.4955 16.6211C27.4277 16.4992 27.3364 16.3918 27.2271 16.3052ZM22.9425 21.0545C21.2167 19.8002 19.138 19.1247 17.0045 19.1247C14.871 19.1247 12.7923 19.8002 11.0664 21.0545C10.8385 21.2204 10.6859 21.4701 10.642 21.7485C10.5982 22.027 10.6668 22.3115 10.8327 22.5394C10.9986 22.7673 11.2482 22.9199 11.5267 22.9638C11.8052 23.0076 12.0896 22.939 12.3175 22.7731C13.6795 21.7826 15.3204 21.249 17.0045 21.249C18.6886 21.249 20.3294 21.7826 21.6914 22.7731C21.8043 22.8553 21.9322 22.9144 22.0679 22.9471C22.2036 22.9798 22.3444 22.9855 22.4823 22.9638C22.6202 22.9421 22.7524 22.8934 22.8715 22.8206C22.9906 22.7478 23.0941 22.6522 23.1763 22.5394C23.2584 22.4265 23.3175 22.2986 23.3503 22.1629C23.383 22.0272 23.3886 21.8864 23.3669 21.7485C23.3452 21.6107 23.2966 21.4784 23.2238 21.3593C23.1509 21.2403 23.0554 21.1367 22.9425 21.0545Z" fill="#1a7a3b"/></svg>